<svg xmlns="http://www.w3.org/2000/svg" viewBox="0 0 100 100">
  <!-- Petals -->
  <ellipse cx="50" cy="15" rx="8" ry="14" fill="#F9A825" transform="rotate(0 50 50)"/>
  <ellipse cx="50" cy="15" rx="8" ry="14" fill="#F9A825" transform="rotate(30 50 50)"/>
  <ellipse cx="50" cy="15" rx="8" ry="14" fill="#F9A825" transform="rotate(60 50 50)"/>
  <ellipse cx="50" cy="15" rx="8" ry="14" fill="#F9A825" transform="rotate(90 50 50)"/>
  <ellipse cx="50" cy="15" rx="8" ry="14" fill="#F9A825" transform="rotate(120 50 50)"/>
  <ellipse cx="50" cy="15" rx="8" ry="14" fill="#F9A825" transform="rotate(150 50 50)"/>
  <ellipse cx="50" cy="15" rx="8" ry="14" fill="#F9A825" transform="rotate(180 50 50)"/>
  <ellipse cx="50" cy="15" rx="8" ry="14" fill="#F9A825" transform="rotate(210 50 50)"/>
  <ellipse cx="50" cy="15" rx="8" ry="14" fill="#F9A825" transform="rotate(240 50 50)"/>
  <ellipse cx="50" cy="15" rx="8" ry="14" fill="#F9A825" transform="rotate(270 50 50)"/>
  <ellipse cx="50" cy="15" rx="8" ry="14" fill="#F9A825" transform="rotate(300 50 50)"/>
  <ellipse cx="50" cy="15" rx="8" ry="14" fill="#F9A825" transform="rotate(330 50 50)"/>
  <!-- Center -->
  <circle cx="50" cy="50" r="18" fill="#4E342E"/>
  <circle cx="50" cy="50" r="13" fill="#3E2723"/>
</svg>